<?xml version="1.0" encoding="UTF-8"?><svg id="Layer_2" xmlns="http://www.w3.org/2000/svg" viewBox="0 0 192.76 192.76"><defs><style>.cls-1{stroke:#0079be;stroke-miterlimit:2.61;stroke-width:1.89px;}.cls-1,.cls-2{fill:#fff;}.cls-1,.cls-2,.cls-3,.cls-4{fill-rule:evenodd;}.cls-3{fill:#0079be;}.cls-4{fill:#ffe237;}</style></defs><g id="Layer_1-2"><polygon class="cls-2" points="0 0 192.76 0 192.76 192.76 0 192.76 0 0 0 0"/><path class="cls-1" d="m96.38,45.14h73.41c9.72,0,12.74,7.13,12.74,12.17v78.14c0,4.85-3.02,12.17-12.74,12.17H22.97c-9.62,0-12.74-7.32-12.74-12.17V57.31c0-5.04,3.11-12.17,12.74-12.17h73.41Z"/><polygon class="cls-3" points="61.84 104.55 88.64 104.55 103.64 88.49 130.54 88.49 107.7 113.97 23.25 113.97 23.25 96.95 68.54 96.95 61.84 104.55 61.84 104.55"/><polygon class="cls-4" points="130.54 88.49 103.64 88.49 88.64 104.65 61.65 104.65 84.49 79.17 169.03 79.17 169.03 96.09 123.74 96.09 130.54 88.49 130.54 88.49"/><path class="cls-3" d="m158.18,72.9c-1.23.76-2.83,1.14-4.34,1.14-4.34,0-8.21-3.23-8.21-7.7s3.49-7.7,7.93-7.7c1.6,0,3.4.29,4.62,1.05v4.75c-.94-.86-2.36-1.14-3.96-1.14-1.51,0-3.3,1.24-3.3,3.23,0,1.71,1.79,2.76,3.3,2.76,1.7,0,2.74-.1,3.96-1.05v4.66h0Z"/><path class="cls-3" d="m169.22,69.28v3.61c-3.87,2.85-8.3.48-8.3-2.85v-6.65h-1.89v-4.37h1.89v-3.52l5.28-2.85v6.37h3.02v3.99h-2.74v6.18c0,1.14,1.89,1.05,2.74.1h0Z"/><path class="cls-3" d="m131.01,63.77l.85-4.09c5.28-1.81,12.83-.76,12.83,3.99v10.08h-4.91l-.19-.48c-2.26,1.43-10.57,2.09-9.44-4.47.66-3.9,5.1-4.85,7.83-4.85,1.42,0,1.98-1.33.19-1.43-1.6-.1-4.81.09-7.17,1.24h0Z"/><path class="cls-3" d="m41.93,63.77l.75-4.09c5.28-1.81,12.83-.76,12.83,3.99v10.08h-5l-.09-.48c-2.17,1.43-10.76,2.09-9.44-4.47.66-3.9,5-4.85,7.74-4.85,1.42,0,1.98-1.33.28-1.43-1.6-.1-4.91.09-7.08,1.24h0Z"/><path class="cls-3" d="m102.42,66.53c0,4.47-3.68,7.61-8.12,7.61s-8.21-3.33-8.21-7.8,3.77-7.8,8.11-7.8,8.21,3.42,8.21,7.99h0Z"/><path class="cls-3" d="m129.21,69.28v3.61c-3.96,2.85-8.3.48-8.3-2.85v-6.65h-1.89v-4.37h1.89v-3.52l5.38-2.85v6.37h2.93v3.99h-2.83v6.18c0,1.14,1.98,1.05,2.83.1h0Z"/><path class="cls-3" d="m33.16,51.6c4.91,0,8.49,6.56,3.96,10.65,5.66,3.52,3.11,11.31-3.21,11.41h-10.57v-22.06h9.81Z"/><path class="cls-3" d="m85.15,72.9c-1.23.76-2.64,1.14-4.25,1.14-4.44,0-8.21-3.23-8.21-7.7s3.49-7.7,7.83-7.7c1.6,0,3.4.29,4.62,1.05v4.75c-1.04-.86-2.26-1.14-3.87-1.14s-3.4,1.24-3.4,3.23c0,1.71,1.89,2.76,3.4,2.76,1.6,0,2.64-.1,3.87-1.05v4.66h0Z"/><path class="cls-3" d="m71.66,64.15v9.6h-5.28v-8.27c0-2.95-4.25-2.85-4.25,0v8.27h-5.28v-14.74h5.38v1.24c4.43-3.33,9.44-.29,9.44,3.9h0Z"/><path class="cls-3" d="m118.27,64.15v9.6h-5.28v-8.27c0-2.95-4.25-2.85-4.25,0v8.27h-5.28v-14.74h5.28v1.24c4.53-3.33,9.53-.29,9.53,3.9h0Z"/><path class="cls-3" d="m138.18,62.53c1.79.09,1.23,1.43-.19,1.43-2.74,0-7.17.95-7.83,4.85-1.13,6.56,7.17,5.89,9.44,4.47l.19.48h4.91v-10.08c0-4.75-7.55-5.8-12.83-3.99l-.85,4.09c2.36-1.14,5.57-1.33,7.17-1.24h0Z"/><path class="cls-3" d="m49.01,62.53c1.7.09,1.13,1.43-.28,1.43-2.74,0-7.08.95-7.74,4.85-1.32,6.56,7.27,5.89,9.44,4.47l.09.48h5v-10.08c0-4.75-7.55-5.8-12.83-3.99l-.75,4.09c2.17-1.14,5.47-1.33,7.08-1.24h0Z"/><path class="cls-3" d="m94.21,58.54c-4.34,0-8.11,3.42-8.11,7.8s3.77,7.8,8.21,7.8,8.12-3.14,8.12-7.61-3.68-7.99-8.21-7.99h0Z"/><path class="cls-3" d="m126.38,69.19v-6.18h2.83v-3.99h-2.93v-6.37l-5.38,2.85v3.52h-1.89v4.37h1.89v6.65c0,3.33,4.34,5.7,8.3,2.85v-3.61c-.85.95-2.83,1.05-2.83-.1h0Z"/><path class="cls-3" d="m23.34,51.6v22.06h10.57c6.32-.09,8.87-7.89,3.21-11.41,4.53-4.09.94-10.65-3.96-10.65h-9.81Z"/><path class="cls-3" d="m85.15,68.24c-1.23.95-2.26,1.05-3.87,1.05-1.51,0-3.4-1.05-3.4-2.76,0-2,1.79-3.23,3.4-3.23s2.83.28,3.87,1.14v-4.75c-1.23-.76-3.02-1.05-4.62-1.05-4.34,0-7.83,3.23-7.83,7.7s3.77,7.7,8.21,7.7c1.6,0,3.02-.38,4.25-1.14v-4.66h0Z"/><path class="cls-3" d="m62.22,60.25v-1.24h-5.38v14.74h5.28v-8.27c0-2.85,4.25-2.95,4.25,0v8.27h5.28v-9.6c0-4.18-5-7.22-9.44-3.9h0Z"/><path class="cls-3" d="m108.74,60.25v-1.24h-5.28v14.74h5.28v-8.27c0-2.85,4.25-2.95,4.25,0v8.27h5.28v-9.6c0-4.18-5-7.22-9.53-3.9h0Z"/><path class="cls-3" d="m158.18,68.24c-1.23.95-2.26,1.05-3.96,1.05-1.51,0-3.3-1.05-3.3-2.76,0-2,1.79-3.23,3.3-3.23,1.6,0,3.02.28,3.96,1.14v-4.75c-1.23-.76-3.02-1.05-4.62-1.05-4.43,0-7.93,3.23-7.93,7.7s3.87,7.7,8.21,7.7c1.51,0,3.11-.38,4.34-1.14v-4.66h0Z"/><path class="cls-3" d="m166.49,69.19v-6.18h2.74v-3.99h-3.02v-6.37l-5.28,2.85v3.52h-1.89v4.37h1.89v6.65c0,3.33,4.43,5.7,8.3,2.85v-3.61c-.85.95-2.74,1.05-2.74-.1h0Z"/><path class="cls-3" d="m97.32,66.53c0,1.62-1.42,2.95-3.02,2.95s-2.93-1.33-2.93-3.14c0-1.9,1.32-2.95,2.93-2.95s3.02,1.05,3.02,3.14h0Z"/><path class="cls-3" d="m29.38,64.82h2.36c2.92,0,3.21,4.47.09,4.47h-2.45v-4.47h0Z"/><path class="cls-3" d="m50.24,67.29v1.81c0,2-3.96,2.57-3.96.48,0-1.9,2.83-2.47,3.96-2.28h0Z"/><path class="cls-3" d="m139.41,67.29v1.81c0,2-3.87,2.57-3.87.48,0-1.9,2.83-2.47,3.87-2.28h0Z"/><path class="cls-3" d="m31.74,56.07c2.74,1.24,1.79,4.18.09,4.18h-2.45v-4.18c0-.09,1.7-.19,2.36,0h0Z"/><path class="cls-2" d="m94.3,63.39c-1.6,0-2.93,1.05-2.93,2.95s1.32,3.14,2.93,3.14,3.02-1.33,3.02-2.95c0-2.09-1.42-3.14-3.02-3.14h0Z"/><path class="cls-2" d="m135.54,69.57c0,2.09,3.87,1.52,3.87-.48v-1.81c-1.04-.19-3.87.38-3.87,2.28h0Z"/><path class="cls-2" d="m29.38,56.07v4.18h2.45c1.7,0,2.64-2.95-.09-4.18-.66-.19-2.36-.09-2.36,0h0Z"/><path class="cls-2" d="m46.27,69.57c0,2.09,3.96,1.52,3.96-.48v-1.81c-1.13-.19-3.96.38-3.96,2.28h0Z"/><path class="cls-2" d="m29.38,69.28h2.45c3.11,0,2.83-4.47-.09-4.47h-2.36v4.47h0Z"/><path class="cls-3" d="m88.92,133.83c0-5.13-2.08-8.46-7.27-8.46-4.91,0-7.83,3.71-7.83,7.89,0,4.56,3.49,7.89,8.4,7.89,4.25,0,6.42-1.71,6.42-1.71v-4.37c-1.79.95-3.77,1.52-5.19,1.52-2.83,0-4.34-.76-4.34-2.76h9.81Z"/><polygon class="cls-3" points="33.54 134.59 37.88 128.32 37.88 140.77 43.54 140.77 43.63 119.19 37.88 119.19 33.54 125.66 29.1 119.19 23.34 119.19 23.44 140.77 29.1 140.77 29.1 128.32 33.54 134.59 33.54 134.59"/><path class="cls-3" d="m95.06,132.12c.57-1.24,1.79-2.28,3.4-2.28.85,0,1.79.38,2.45.86v-4.66c-.47-.57-1.23-.76-1.98-.76-1.32,0-3.11.76-3.87,1.71v-1.52h-5.1v15.31h5.1v-8.65h0Z"/><path class="cls-3" d="m51.65,139.82c1.79.76,3.96,1.05,5.38,1.05,5.47,0,7.08-2.85,7.08-5.23,0-2.76-2.83-4.28-5.38-4.66-.38,0-1.42-.29-1.42-.76,0-.38.28-.86,1.51-.86,1.04,0,2.93.38,3.87.86l-.19-3.99c-1.42-.48-3.4-.86-4.91-.86-3.11,0-5.85,1.9-5.85,4.94,0,2.38,1.7,3.61,4.43,4.18,1.13.1,2.17.57,2.17,1.14,0,.76-.75.95-1.51.95-.66,0-2.36.19-5.19-.95v4.18h0Z"/><path class="cls-3" d="m71,136.12v-6.27h2.93v-4.09h-3.11v-6.56l-5.38,2.85v3.71h-1.89v4.37h1.89v6.85c0,3.42,4.43,5.7,8.49,2.85v-3.71c-.85.86-2.93,1.05-2.93,0h0Z"/><polygon class="cls-3" points="50.71 140.58 50.71 125.75 45.05 125.75 45.05 140.58 50.71 140.58 50.71 140.58"/><path class="cls-3" d="m47.88,125.28c1.7,0,3.11-1.43,3.11-3.14,0-1.62-1.42-2.95-3.11-2.95-1.6,0-2.92,1.33-2.92,2.95,0,1.71,1.32,3.14,2.92,3.14h0Z"/><path class="cls-3" d="m140.92,139.82c1.79.76,3.96,1.05,5.38,1.05,5.47,0,7.17-2.85,7.17-5.23,0-2.76-2.83-4.28-5.47-4.66-.38,0-1.42-.29-1.42-.76,0-.38.28-.86,1.6-.86,1.04,0,2.83.38,3.87.86l-.28-3.99c-1.42-.48-3.4-.86-4.91-.86-3.11,0-5.85,1.9-5.85,4.94,0,2.38,1.7,3.61,4.43,4.18,1.13.1,2.17.57,2.17,1.14,0,.76-.75.95-1.51.95-.66,0-2.36.19-5.19-.95v4.18h0Z"/><path class="cls-3" d="m124.31,134.5c-1.79,1.33-3.21,1.62-5.57,1.62-3.59,0-6.79-2.95-6.79-5.99,0-3.33,1.79-6.46,6.79-6.46,2.26,0,4.15.38,5.57,1.71v-5.13c-1.79-1.05-4.25-1.33-6.42-1.33-6.51,0-11.51,4.66-11.51,11.03s5.47,11.03,11.89,11.03c2.17,0,4.25-.48,6.04-1.52v-4.94h0Z"/><path class="cls-3" d="m133.37,129.08c1.79.1,1.23,1.52-.19,1.52-2.83,0-7.36.95-7.93,4.85-1.23,6.65,7.27,6.08,9.53,4.66l.19.38h5.1v-10.27c0-4.85-7.74-5.8-13.21-3.99l-.75,4.09c2.36-1.14,5.66-1.33,7.27-1.24h0Z"/><path class="cls-3" d="m159.5,126.89v-7.7h-5.28v21.58h5.28v-8.46c0-2.85,4.34-2.95,4.34,0v8.46h5.38v-9.79c0-4.37-5.1-7.42-9.72-4.09h0Z"/><path class="cls-2" d="m78.92,130.89c.28-1.43,1.42-1.9,2.45-1.9s2.36.48,2.36,1.9h-4.81Z"/><path class="cls-2" d="m134.59,133.93v1.81c0,2.09-3.96,2.57-3.96.48,0-1.9,2.93-2.38,3.96-2.28h0Z"/></g></svg>