<svg width="148" height="57" viewBox="0 0 148 57" fill="none" xmlns="http://www.w3.org/2000/svg">
<path d="M95.5771 45.4083C95.5771 46.0953 95.3169 46.727 94.8905 47.2035C94.4033 47.7632 93.6835 48.1178 92.8751 48.1178H73.6235C71.8628 48.1178 70.4398 46.6882 70.4398 44.9317C70.4398 43.8623 70.8108 42.8262 71.4918 42.0006L87.1999 22.9729H73.1473C72.3777 22.9729 71.6856 22.6515 71.1928 22.1362C70.7277 21.6486 70.4398 20.9892 70.4398 20.2633C70.4398 19.5375 70.7277 18.8781 71.1928 18.396C71.6856 17.8807 72.3777 17.5593 73.1473 17.5593H91.1089C93.1021 17.5593 94.7134 19.1773 94.7134 21.1665C94.7134 22.2969 94.3202 23.394 93.606 24.2694L78.5181 42.7043H92.8751C93.9714 42.7043 94.9182 43.3581 95.3335 44.3001C95.4941 44.6381 95.5771 45.0149 95.5771 45.4083Z" fill="#EF7946"/>
<path d="M109.231 41.4963C109.115 41.4076 108.998 41.319 108.882 41.2192C108.965 41.2913 109.054 41.3578 109.142 41.4243C109.17 41.452 109.203 41.4741 109.231 41.4963Z" fill="#EF7946"/>
<path d="M124.95 36.3154C124.867 36.6146 124.762 36.9028 124.651 37.1854V37.1964H124.64C124.756 36.9083 124.862 36.6146 124.95 36.3154Z" fill="#EF7946"/>
<path d="M125.072 35.8667C125.061 35.9332 125.044 35.9941 125.028 36.0606C125.005 36.1437 124.978 36.2324 124.95 36.3155C124.994 36.1659 125.033 36.0163 125.072 35.8667Z" fill="#EF7946"/>
<path d="M125.172 35.4014C125.172 35.4014 125.172 35.4346 125.166 35.4512C125.149 35.5454 125.127 35.6396 125.105 35.7338C125.105 35.7504 125.105 35.7671 125.094 35.7837C125.089 35.8114 125.083 35.8391 125.072 35.8668C125.105 35.7117 125.144 35.5565 125.172 35.4014Z" fill="#EF7946"/>
<path d="M125.31 34.4592C125.31 34.4592 125.304 34.5146 125.304 34.5423C125.288 34.6753 125.271 34.8083 125.249 34.9358C125.271 34.7751 125.293 34.6144 125.31 34.4592Z" fill="#EF7946"/>
<path d="M125.36 33.4841C125.36 33.6171 125.36 33.7501 125.349 33.883C125.349 34.016 125.338 34.149 125.327 34.282C125.321 34.3429 125.316 34.3984 125.31 34.4593C125.338 34.1379 125.354 33.811 125.354 33.4841C125.354 32.1986 125.116 30.9685 124.668 29.8381H124.673C125.122 30.9685 125.36 32.1986 125.36 33.4841Z" fill="#EF7946"/>
<path d="M137.076 2.24951C137.076 2.24951 137.076 2.2883 137.07 2.31046C137.07 2.2883 137.076 2.27168 137.07 2.24951H137.076Z" fill="#EF7946"/>
<path d="M147.878 20.6124C147.109 24.9565 142.746 36.8641 138.466 45.037C138.454 45.0536 138.454 45.0758 138.449 45.0924C137.685 46.7658 137.214 48.622 136.816 50.4672L136.788 50.5725C136.788 50.5725 136.777 50.6223 136.771 50.65C136.766 50.6722 136.76 50.6999 136.755 50.7221C136.755 50.7442 136.749 50.7664 136.744 50.783C136.422 52.2514 135.265 53.4039 133.804 53.7197C133.776 53.7253 133.754 53.7308 133.726 53.7364L118.029 56.9113C118.029 56.9113 117.979 56.9224 117.952 56.928C117.713 56.9778 117.464 57 117.215 57C115.753 57 114.485 56.1855 113.838 54.9886C113.777 54.8889 113.721 54.7947 113.66 54.7005C113.588 54.5786 113.511 54.4567 113.439 54.3403C113.157 53.9026 112.863 53.4704 112.559 53.0493C112.415 52.8443 112.265 52.6448 112.11 52.4509C111.944 52.2292 111.772 52.0131 111.601 51.8026C111.446 51.6142 111.291 51.4313 111.136 51.2485C110.92 51.0047 110.704 50.7608 110.482 50.5226C110.305 50.3342 110.128 50.1513 109.951 49.9685C109.563 49.5751 109.165 49.1983 108.755 48.8326C108.55 48.6497 108.345 48.4724 108.135 48.2951C107.924 48.1178 107.708 47.946 107.492 47.7743C107.492 47.7743 107.492 47.7687 107.481 47.7632C107.271 47.6025 107.055 47.4363 106.839 47.2756C106.834 47.259 106.828 47.2423 106.822 47.2257L106.817 47.2202C105.964 46.6938 105.161 46.0843 104.419 45.4083C101.186 42.4549 99.1539 38.1995 99.1539 33.4841C99.1539 32.9577 99.1761 32.4202 99.2314 31.8938C99.392 30.2205 100.881 28.9904 102.554 29.1566C104.231 29.3173 105.455 30.8078 105.289 32.4867C105.261 32.8192 105.244 33.1516 105.244 33.4841C105.244 35.4234 105.798 37.2353 106.75 38.7702C106.75 38.7702 106.75 38.7757 106.756 38.7757C106.917 39.0417 107.094 39.2966 107.282 39.5404C107.288 39.5515 107.293 39.5625 107.304 39.5736C107.393 39.69 107.481 39.8063 107.581 39.9172C107.625 39.9781 107.675 40.0335 107.736 40.0945C107.775 40.1443 107.825 40.1998 107.874 40.2496C107.919 40.2995 107.963 40.3494 108.013 40.3992C108.041 40.438 108.079 40.4768 108.124 40.5156C108.14 40.5378 108.157 40.5599 108.179 40.571C108.284 40.6818 108.389 40.7816 108.495 40.8758C108.616 40.9977 108.749 41.114 108.882 41.2193C108.998 41.319 109.115 41.4077 109.231 41.4963C109.275 41.5351 109.325 41.5684 109.369 41.6016C109.475 41.6792 109.58 41.7568 109.691 41.8288C110.012 42.0504 110.344 42.2444 110.687 42.4217C111.147 42.6599 111.628 42.865 112.127 43.0312C112.348 43.1088 112.575 43.1753 112.808 43.2307C112.858 43.2473 112.913 43.2584 112.963 43.2695C113.151 43.3138 113.339 43.3526 113.533 43.3914C114.109 43.4966 114.701 43.552 115.305 43.552C115.698 43.552 116.091 43.5299 116.473 43.4856C116.589 43.4745 116.7 43.4578 116.816 43.4357C116.933 43.4135 117.049 43.3969 117.165 43.3747C117.392 43.3359 117.614 43.2861 117.835 43.2251C118.167 43.1365 118.5 43.0312 118.821 42.9148C119.031 42.8373 119.236 42.7486 119.441 42.6544C119.546 42.6045 119.646 42.5547 119.751 42.5048C119.851 42.4605 119.945 42.4106 120.044 42.3497C120.144 42.2998 120.244 42.2444 120.343 42.189C120.537 42.0781 120.725 41.9618 120.908 41.8288H120.914C121.008 41.7734 121.096 41.7069 121.185 41.6349C121.274 41.5739 121.368 41.5019 121.456 41.4354C121.589 41.3357 121.722 41.2248 121.849 41.1085C121.888 41.0752 121.927 41.042 121.966 41.0087C121.982 40.9977 121.999 40.9866 122.016 40.97C122.165 40.837 122.32 40.6929 122.459 40.5488C122.569 40.438 122.68 40.3217 122.78 40.1998C122.796 40.1887 122.807 40.1721 122.813 40.161C122.879 40.0834 122.951 40.0058 123.012 39.9282C123.095 39.8396 123.167 39.7509 123.234 39.6567C123.261 39.6235 123.289 39.5902 123.311 39.5515C123.339 39.5182 123.367 39.485 123.389 39.4517C123.472 39.3464 123.549 39.2412 123.616 39.1303C123.682 39.0362 123.743 38.942 123.804 38.8422C123.898 38.7037 123.981 38.5652 124.059 38.4156C124.064 38.4045 124.07 38.3934 124.081 38.3768C124.131 38.2881 124.18 38.1939 124.23 38.0997C124.252 38.0554 124.275 38.0111 124.297 37.9667C124.324 37.9169 124.347 37.867 124.369 37.8171C124.38 37.8116 124.38 37.8005 124.385 37.7894C124.391 37.7784 124.396 37.7673 124.402 37.7562C124.441 37.6731 124.479 37.59 124.513 37.5068C124.535 37.457 124.557 37.4016 124.579 37.3517C124.601 37.3018 124.623 37.2464 124.646 37.1965V37.1855C124.762 36.9029 124.867 36.6147 124.95 36.3155C124.978 36.2324 125.005 36.1438 125.028 36.0606C125.044 35.9942 125.061 35.9332 125.072 35.8667C125.083 35.839 125.089 35.8113 125.094 35.7836C125.1 35.767 125.105 35.7504 125.105 35.7337C125.127 35.6395 125.149 35.5453 125.166 35.4511C125.172 35.4345 125.172 35.4179 125.172 35.4013C125.205 35.2461 125.232 35.091 125.249 34.9358C125.271 34.8084 125.288 34.6754 125.304 34.5424C125.304 34.5147 125.31 34.487 125.31 34.4593C125.31 34.3984 125.321 34.3429 125.327 34.282C125.338 34.149 125.349 34.016 125.349 33.883C125.36 33.7501 125.36 33.6171 125.36 33.4841C125.36 32.1986 125.122 30.9685 124.673 29.8381C124.612 29.683 124.551 29.5334 124.485 29.3838C124.419 29.2397 124.352 29.0901 124.275 28.946C124.203 28.802 124.131 28.6579 124.048 28.5194C123.965 28.3753 123.881 28.2423 123.793 28.1038C123.782 28.0816 123.771 28.065 123.76 28.0484C123.688 27.932 123.61 27.8157 123.527 27.6993C123.516 27.6882 123.511 27.6716 123.499 27.6605C123.416 27.5386 123.328 27.4278 123.239 27.3115C123.239 27.3059 123.228 27.2948 123.217 27.2893C123.128 27.1674 123.029 27.051 122.929 26.9347C122.824 26.8183 122.719 26.7019 122.608 26.5856H122.602C120.77 24.6352 118.173 23.4217 115.299 23.4217C112.802 23.4217 110.41 24.3415 108.561 26.0149C107.315 27.1397 105.388 27.0399 104.264 25.7932C103.135 24.541 103.235 22.6182 104.48 21.4879C107.454 18.8061 111.296 17.3266 115.299 17.3266C119.729 17.3266 123.749 19.1219 126.667 22.0254C125.836 13.5809 124.795 5.42461 124.147 2.92563C124.136 2.88684 124.131 2.84805 124.125 2.80927C123.909 1.56809 124.695 0.354615 125.93 0.0664841C127.187 -0.232728 128.449 0.548549 128.765 1.82297C128.776 1.84514 128.776 1.86176 128.782 1.88392C129.773 4.73752 131.971 15.897 133.61 26.0481C134.928 19.0665 136.04 11.5418 136.24 8.35578C136.245 8.30037 136.251 8.2505 136.256 8.20063C136.339 7.38611 136.81 6.63808 137.58 6.24467C138.753 5.65179 140.182 6.15601 140.758 7.40273C140.918 7.75736 140.99 8.1286 140.99 8.49431V8.60512C141.107 11.8078 140.741 19.5652 140.104 26.8571C141.671 23.3386 142.878 20.2523 143.41 18.4404C143.421 18.396 143.438 18.3572 143.46 18.3185C143.67 17.7921 144.03 17.3432 144.523 17.0662C145.68 16.4068 147.136 17.0052 147.74 18.4625C148.039 19.1662 148.072 19.942 147.878 20.6124Z" fill="#EF7946"/>
<path d="M110.687 42.4217C110.344 42.2444 110.012 42.0505 109.691 41.8289C110.012 42.045 110.344 42.2389 110.687 42.4217Z" fill="#EF7946"/>
<path d="M116.816 43.4357C116.7 43.4579 116.589 43.4745 116.473 43.4856C116.091 43.5299 115.698 43.552 115.305 43.552C114.701 43.552 114.109 43.4966 113.533 43.3914C114.109 43.4911 114.696 43.5465 115.299 43.5465C115.692 43.5465 116.086 43.5243 116.468 43.48C116.584 43.4689 116.7 43.4523 116.816 43.4357Z" fill="#EF7946"/>
<path d="M122.78 40.1997C122.68 40.3216 122.569 40.438 122.459 40.5488C122.32 40.6929 122.165 40.8369 122.016 40.9699C121.999 40.9865 121.982 40.9976 121.966 41.0087C122.254 40.7538 122.519 40.4878 122.78 40.1997Z" fill="#EF7946"/>
<path d="M123.311 39.5515C123.289 39.5903 123.261 39.6235 123.234 39.6568C123.167 39.751 123.095 39.8396 123.012 39.9283C123.117 39.8064 123.217 39.679 123.311 39.5515Z" fill="#EF7946"/>
<path d="M123.217 27.2894C123.023 27.0456 122.818 26.8073 122.608 26.5857C122.719 26.7021 122.824 26.8184 122.929 26.9348C123.029 27.0511 123.128 27.1675 123.217 27.2894Z" fill="#EF7946"/>
<path d="M123.499 27.6606C123.405 27.5331 123.311 27.4112 123.217 27.2893C123.228 27.2948 123.234 27.3059 123.239 27.3115C123.328 27.4278 123.416 27.5386 123.499 27.6606Z" fill="#EF7946"/>
<path d="M124.95 36.3154C124.867 36.6146 124.762 36.9028 124.651 37.1854V37.1964C124.623 37.2463 124.601 37.3017 124.579 37.3516C124.601 37.3017 124.623 37.2463 124.64 37.1964C124.756 36.9083 124.862 36.6146 124.95 36.3154Z" fill="#EF7946"/>
<path d="M125.072 35.8667C125.061 35.9332 125.044 35.9941 125.028 36.0606C125.005 36.1437 124.978 36.2324 124.95 36.3155C124.994 36.1659 125.033 36.0163 125.072 35.8667Z" fill="#EF7946"/>
<path d="M125.172 35.4014C125.172 35.4014 125.172 35.4346 125.166 35.4512C125.149 35.5454 125.127 35.6396 125.105 35.7338C125.105 35.7504 125.105 35.7671 125.094 35.7837C125.089 35.8114 125.083 35.8391 125.072 35.8668C125.105 35.7117 125.144 35.5565 125.172 35.4014Z" fill="#EF7946"/>
<path d="M125.31 34.4592C125.31 34.4592 125.304 34.5146 125.304 34.5423C125.288 34.6753 125.271 34.8083 125.249 34.9358C125.271 34.7751 125.293 34.6144 125.31 34.4592Z" fill="#EF7946"/>
<path d="M125.36 33.484C125.36 33.617 125.36 33.75 125.349 33.883C125.349 34.016 125.338 34.149 125.327 34.2819C125.321 34.3429 125.316 34.3983 125.31 34.4593C125.338 34.1379 125.354 33.811 125.354 33.484C125.354 32.1985 125.116 30.9684 124.668 29.8381C124.435 29.2286 124.136 28.6468 123.793 28.1038C123.881 28.2423 123.965 28.3753 124.048 28.5193C124.131 28.6579 124.203 28.8019 124.275 28.946C124.352 29.0901 124.419 29.2397 124.485 29.3837C124.551 29.5333 124.612 29.6829 124.673 29.8325C125.122 30.9684 125.36 32.1985 125.36 33.484Z" fill="#EF7946"/>
<path d="M66.4367 45.4083C66.4367 46.2727 66.0325 47.0428 65.4013 47.5305C64.9417 47.9017 64.3603 48.1178 63.7291 48.1178H46.886C45.0589 48.1178 43.5805 46.6384 43.5805 44.8098V20.8673C43.5805 19.0388 45.0589 17.5593 46.886 17.5593H62.9152C63.9008 17.5593 64.7645 18.0857 65.2352 18.8725C65.4788 19.277 65.6227 19.7536 65.6227 20.2633C65.6227 20.7731 65.4788 21.2496 65.2352 21.6541C64.7645 22.4465 63.9008 22.9729 62.9152 22.9729H49.9922V29.5223H62.3172C63.2807 29.5223 64.1278 30.0265 64.5984 30.7912C64.8642 31.2067 65.0192 31.6999 65.0192 32.2318C65.0192 32.7638 64.8642 33.2569 64.5984 33.6725C64.1223 34.4316 63.2807 34.9358 62.3172 34.9358H49.9922V42.7043H63.7291C64.6427 42.7043 65.4566 43.1586 65.9383 43.8568C66.2539 44.3001 66.4367 44.832 66.4367 45.4083Z" fill="#255586"/>
<path d="M25.1373 45.4083C25.1373 46.0953 24.8771 46.727 24.4507 47.2035C23.9635 47.7632 23.2437 48.1178 22.4353 48.1178H3.18369C1.42297 48.1178 0 46.6882 0 44.9317C0 43.8623 0.370969 42.8262 1.052 42.0006L16.76 22.9729H2.70752C1.9379 22.9729 1.24579 22.6515 0.753012 22.1362C0.287916 21.6486 0 20.9892 0 20.2633C0 19.5375 0.287916 18.8781 0.753012 18.396C1.24579 17.8807 1.9379 17.5593 2.70752 17.5593H20.6691C22.6623 17.5593 24.2736 19.1773 24.2736 21.1665C24.2736 22.2969 23.8804 23.394 23.1662 24.2694L8.07826 42.7043H22.4353C23.5316 42.7043 24.4784 43.3581 24.8937 44.3001C25.0542 44.6381 25.1373 45.0149 25.1373 45.4083Z" fill="#255586"/>
<path d="M36.2774 20.4793V45.2697C36.2774 46.4831 35.6186 47.547 34.6385 48.1177C34.1513 48.4059 33.5865 48.5721 32.9775 48.5721C32.3684 48.5721 31.8037 48.4059 31.3164 48.1177C30.3364 47.547 29.6775 46.4831 29.6775 45.2697V20.4793C29.6775 19.216 30.3862 18.1134 31.4272 17.5593C31.8867 17.3099 32.4127 17.1714 32.9775 17.1714C33.5422 17.1714 34.0682 17.3099 34.5278 17.5593C35.5687 18.1134 36.2774 19.216 36.2774 20.4793Z" fill="#255586"/>
</svg>
